<svg version="1.1" xmlns="http://www.w3.org/2000/svg" x="0px" y="0px"
     viewBox="0 0 1000 1000" enable-background="new 0 0 1000 1000" xml:space="preserve">
<g><path d="M177.1,225.7H783v53.9H177.1V225.7z"/>
    <path d="M813.4,531.5c-20.1,0-40.4-3.4-60.2-10.1c-43.6-14.6-78.3-46.2-98.1-86.5c-29.8,55.1-88.2,92.2-155.4,92.2c-67.4,0-127.1-38.7-156.7-95.5c-29.8,57.3-89.2,95.5-156.2,95.5c-99,0-176.6-75.6-176.6-172.2c0-2.2,0.4-4.6,1.2-6.7L118.9,49.4c7.3-19.9,26.1-33.2,47.2-33.2h693.5c22.6,0,42.5,15.2,48.4,36.9l81.3,296.6c0.5,1.7,0.7,3.5,0.7,5.2C990,452.2,910.8,531.5,813.4,531.5z M676.1,356.8c0.1,57.9,36.1,109.4,89.5,127.3c15.9,5.3,31.9,8,47.7,8c74.8,0,135.9-60.2,137.2-134.7L870,63.4c-1.2-4.6-5.6-7.9-10.4-7.9H166.1c-4.5,0-8.6,2.9-10.1,7.1L49.5,358.2c1.8,72.9,61.4,129.5,137.2,129.5c71.3,0,131.4-55.6,136.8-126.6c-0.3-1.5-0.5-6.1-0.5-10.7c0-10.9,8.8-19.7,19.7-19.7c10.9,0,20.6,8.8,20.6,19.7c0,4.6-0.2,9.1-0.5,13.6c5.4,68,65.5,123.6,136.8,123.6c74.2,0,134.5-58.1,137.2-132.2l0,0l0.8-4.9c2.3-8.9,10.1-16.9,18.9-16.9c0.1,0,0.2,0,0.2,0c10.8,0.2,19.5,6.1,19.5,16.9v0.5C676.3,351.1,676.1,356.8,676.1,356.8z"/>
    <path d="M851.6,983.8H192.4c-44.3,0-80.4-36.1-80.4-80.4V599.8h39.4v303.5c0,22.6,18.4,41,41.1,41h659.1c22.7,0,41.1-18.4,41.1-41V599.8h39.4v303.5C932,947.7,895.9,983.8,851.6,983.8z"/></g>
</svg>