<svg width="800" height="600" xmlns="http://www.w3.org/2000/svg">

    <g>
        <title>Layer 1</title>
        <g>
            <title fill="#559E84">online-card-payment</title>
            <path fill="#559E84"
                  d="m404.06,252.64537a42.76,42.76 0 0 0 -9.96,2.89a48,48 0 0 0 -7.63,4.13a43.79,43.79 0 0 0 -6.54,5.39l0,0a44.71,44.71 0 0 0 -3.55,4l12.91,0a100,100 0 0 1 14.77,-16.41zm-60.37,47.14l65.87,0a5.14,5.14 0 0 1 5.13,5.13l0,43.42a5.16,5.16 0 0 1 -5.13,5.13l-65.87,0a5.14,5.14 0 0 1 -5.13,-5.13l0,-43.42a5.16,5.16 0 0 1 5.13,-5.13zm8,42a1.52,1.52 0 1 1 0,-3l15.52,0a1.52,1.52 0 0 1 0,3l-15.52,0zm0,-7.2a1.52,1.52 0 0 1 0,-3l23.03,0a1.52,1.52 0 1 1 0,3l-23.03,0zm37.23,-4.81a6.88,6.88 0 0 1 5.53,2.78a6.89,6.89 0 1 1 0,8.22a6.89,6.89 0 1 1 -5.53,-11zm-46.82,-19.39l69,0l0,-5.47a1.59,1.59 0 0 0 -0.47,-1.12a1.61,1.61 0 0 0 -1.07,-0.47l-65.87,0a1.57,1.57 0 0 0 -1.59,1.59l0,5.47zm69,13.61l-69,0l0,24.34a1.6,1.6 0 0 0 0.46,1.13a1.57,1.57 0 0 0 1.12,0.47l65.88,0a1.6,1.6 0 0 0 1.12,-0.48a1.52,1.52 0 0 0 0.48,-1.12l0,-24.34l-0.06,0zm38.95,-5.46l0.11,0a49.14,49.14 0 0 0 2.29,-4.66l0.06,-0.13a42,42 0 0 0 2.53,-8.21a43.46,43.46 0 0 0 0.79,-6.19l-12.38,0a44.35,44.35 0 0 1 -5.7,19.19l12.3,0zm-3.57,5.53l-12.17,0a82.09,82.09 0 0 1 -10.15,11.78l0,-7.92q1.75,-1.94 3.29,-3.88l-3.29,0l0,-5.51l7.21,0a40.34,40.34 0 0 0 6.56,-19.2l-13.77,0l0,-2.8a6.74,6.74 0 0 0 -0.6,-2.75l14.25,0q-1,-9.47 -7.17,-19.21l-16.45,0l0,15.1l-5.53,0l0,-15.14l-16.45,0a46.92,46.92 0 0 0 -6.5,15.1l-5.63,0a49.81,49.81 0 0 1 5.71,-15.1l-13.09,0a47.86,47.86 0 0 0 -2.3,4.65l-0.06,0.13a42.27,42.27 0 0 0 -2.53,8.24c-0.14,0.68 -0.26,1.38 -0.36,2.08l-5.59,0c0.15,-1.07 0.32,-2.12 0.53,-3.16a48.73,48.73 0 0 1 2.87,-9.32l0.07,-0.15a52.16,52.16 0 0 1 4.62,-8.47a48.9,48.9 0 0 1 6.08,-7.38a48.34,48.34 0 0 1 7.38,-6.07a52.2,52.2 0 0 1 8.52,-4.63a49.11,49.11 0 0 1 19.5,-3.92a50.92,50.92 0 0 1 10,1a47.56,47.56 0 0 1 9.32,2.87l0.15,0.06a52.62,52.62 0 0 1 8.52,4.63a49.29,49.29 0 0 1 13.48,13.44a53,53 0 0 1 4.66,8.51a47.78,47.78 0 0 1 2.9,9.49a51.87,51.87 0 0 1 0,20.07a47.26,47.26 0 0 1 -2.9,9.29l-0.06,0.15a53,53 0 0 1 -4.6,8.49a48.34,48.34 0 0 1 -6.07,7.38a48.9,48.9 0 0 1 -7.38,6.08a52.16,52.16 0 0 1 -8.52,4.62a47.88,47.88 0 0 1 -6.77,2.32l0,-5.7a44.09,44.09 0 0 0 4.59,-1.7a47.13,47.13 0 0 0 7.63,-4.13a42.69,42.69 0 0 0 6.54,-5.39l0,0a43.36,43.36 0 0 0 3.55,-4l0.01,0.05zm-3.14,-30.26l12.49,0a43.27,43.27 0 0 0 -0.79,-6.19a42.73,42.73 0 0 0 -2.58,-8.37a50.26,50.26 0 0 0 -2.3,-4.71l-13.1,0a47.34,47.34 0 0 1 6.28,19.21l0,0.06zm-47.2,-24.76l12.52,0l0,-13.13a102.12,102.12 0 0 0 -12.52,13.13zm18,0l12.57,0a102.12,102.12 0 0 0 -12.52,-13.13l0,13.13l-0.05,0zm19.37,0l12.92,0a44.71,44.71 0 0 0 -3.55,-4l0,0a43.29,43.29 0 0 0 -6.54,-5.39a47.09,47.09 0 0 0 -7.59,-4.12l-0.14,-0.06a42,42 0 0 0 -8.23,-2.54c-0.52,-0.11 -1,-0.2 -1.59,-0.29a100,100 0 0 1 14.77,16.4l-0.05,0z"/>
        </g>
    </g>
</svg>