<svg version="1.1" xmlns="http://www.w3.org/2000/svg" x="0px" y="0px"
     viewBox="0 0 1000 1000" enable-background="new 0 0 1000 1000" xml:space="preserve">
<g><g transform="translate(0.000000,511.000000) scale(0.100000,-0.100000)"><path d="M4233.4,4983c-645.5-131.1-1161.9-623.3-1333.3-1270.8c-56.5-213.8-60.5-562.8-10.1-782.7c74.6-330.8,228-607.2,468-847.2c153.3-155.3,290.5-250.1,496.2-347c252.1-119,369.1-141.2,732.2-141.2c312.7,2,328.8,4,518.4,68.6c1097.3,375.2,1527,1654,877.5,2612.2c-234,346.9-647.5,619.3-1067.1,706C4729.6,5019.3,4417,5019.3,4233.4,4983z M4864.8,4638.1c474-104.9,859.3-457.9,1016.6-925.9c46.4-139.2,52.5-195.7,52.5-413.5c2-219.9-6.1-272.3-52.5-413.5c-153.3-466-518.4-804.8-992.4-927.9c-286.4-72.6-681.8-22.2-964.2,125.1c-217.9,113-466,367.1-574.9,591c-113,230-151.3,391.3-151.3,625.3c0,232,40.3,399.4,147.2,617.2C3616.2,4468.6,4255.6,4773.2,4864.8,4638.1z"/><path
        d="M4453.3,4268.9c-32.3-32.3-58.5-78.7-58.5-100.8c0-28.2-26.2-54.5-78.7-82.7c-205.7-104.9-314.7-387.3-236-611.2c68.6-187.6,213.8-302.6,437.7-344.9c163.4-32.3,219.9-76.7,219.9-173.5c0-30.3-18.2-78.7-42.4-108.9c-32.3-42.4-58.5-52.4-129.1-52.4s-96.8,10.1-129.1,52.4c-24.2,30.3-42.4,80.7-42.4,113c0,143.2-191.6,209.8-296.5,104.9c-46.4-46.4-50.4-62.5-40.3-159.3c6-58.5,28.2-141.2,50.4-185.6c44.4-86.7,177.5-215.8,242.1-236c22.2-8.1,44.4-38.3,50.4-72.6c18.2-86.7,82.7-141.2,165.4-141.2c86.7,0,171.5,74.6,171.5,147.2c0,36.3,16.1,56.5,58.5,74.6c72.6,28.2,195.7,149.3,238,232c18.1,32.3,36.3,119,42.4,191.6c6,106.9,0,153.3-36.3,238c-80.7,185.6-215.8,276.3-472,316.7c-42.4,8.1-98.8,34.3-127.1,62.5c-42.3,42.4-48.4,64.5-38.3,125.1c14.1,94.8,74.6,145.2,173.5,145.2c94.8,0,149.3-60.5,169.4-181.5c24.2-149.3,177.5-199.7,290.5-96.8c129.1,121-26.2,484.1-250.1,585c-32.3,14.1-48.4,40.3-48.4,70.6c0,26.2-22.2,70.6-50.4,96.8C4618.7,4347.6,4530,4343.6,4453.3,4268.9z"/><path
        d="M7501.2,2403.1c-736.3-155.3-1293-766.5-1369.6-1504.8c-54.4-540.6,129.1-1044.9,514.4-1414c246.1-234,490.2-367.1,808.9-443.8c147.2-36.3,223.9-40.3,449.8-34.3c248.1,8.1,290.5,14.1,478.1,80.7c441.7,153.3,772.6,435.7,982.3,841.1c125,240,173.5,427.6,187.6,708c20.2,427.6-106.9,819-375.2,1155.8c-211.8,264.2-562.8,496.2-899.6,589C8112.4,2427.3,7672.7,2439.4,7501.2,2403.1z M8134.6,2058.2c290.5-62.5,611.2-264.2,790.7-500.2c314.7-415.5,377.2-964.2,159.4-1422.1c-163.4-344.9-421.6-580.9-786.7-716.1c-135.2-50.4-199.7-62.5-393.3-68.6c-282.4-12.1-439.7,20.2-685.8,139.2c-137.2,66.6-203.7,115-342.9,256.2c-195.7,197.7-294.5,365.1-365.1,617.3c-60.5,223.9-48.4,576.9,28.2,792.7C6773,1820.2,7450.8,2203.4,8134.6,2058.2z"/><path
        d="M7721.1,1687c-32.3-32.3-58.5-76.7-58.5-98.8c0-26.2-32.3-58.5-90.8-94.8c-252.1-147.3-324.7-494.2-151.3-734.2c86.7-119,191.6-179.5,365.1-211.8c167.4-32.3,219.9-76.7,219.9-181.5c-2-74.6-36.3-125.1-104.9-151.3c-110.9-42.4-211.8,22.2-232,147.3c-16.1,106.9-84.7,173.5-177.5,173.5c-133.1,0-191.6-110.9-151.3-282.4c30.3-127.1,119-250.1,232-318.7c56.5-36.3,90.8-72.6,98.8-108.9c26.2-131.1,189.6-181.5,284.4-86.7c28.3,26.2,50.4,66.6,50.4,90.8c0,26.2,32.3,60.5,98.8,100.9c98.8,60.5,183.6,163.4,221.9,268.3c32.3,82.7,26.2,280.4-8.1,365.1c-68.6,161.4-268.3,314.7-413.5,314.7c-165.4,0-272.3,119-221.9,242.1c30.3,74.6,74.6,100.9,167.4,100.9c78.7,0,155.3-68.6,155.3-139.2c0-74.6,56.5-157.3,121-179.5c70.6-26.2,112.9-16.1,177.5,42.3c52.5,48.4,60.5,195.7,16.1,306.6c-38.3,90.8-179.5,242.1-254.2,272.3c-44.4,18.2-60.5,38.3-60.5,74.6c0,26.2-22.2,70.6-50.4,96.8C7886.5,1765.7,7797.7,1761.6,7721.1,1687z"/><path
        d="M550.1-675c-115-46.4-108.9,62.5-108.9-2063.5v-1952.6l50.4-48.4L540-4790h1101.4h1101.3l48.4,50.4c46.4,44.4,50.4,62.5,50.4,252.1v201.7h268.3c578.9,0,1103.4-56.5,1789.2-191.6c504.3-98.8,671.7-123,998.5-141.2c786.7-44.4,1748.9,258.2,2773.6,873.4c461.9,276.4,706,490.2,819,720.1c64.6,135.1,88.8,369.1,50.4,510.3c-44.4,159.4-197.7,290.5-385.3,326.8c-167.4,32.3-334.8-14.1-722.1-199.7L8096.3-2551h-213.8h-215.8l-8.1,177.5c-12.1,219.9-66.6,336.9-225.9,484.1c-199.7,181.6-223.9,185.6-1028.7,185.6H5714l-98.8,141.2c-177.5,262.2-409.5,427.6-710,506.3c-123,32.3-221.9,42.4-459.9,42.4c-355,0-463.9-18.2-964.2-175.5c-310.6-94.8-534.5-151.3-613.2-151.3c-20.2,0-26.2,62.5-26.2,288.5c0,284.4,0,290.5-52.5,338.9l-52.4,48.4l-1071.1,4C1074.6-658.9,572.3-665,550.1-675z M2498.7-2722.4v-1724.6h-857.3H784.1v1724.6v1724.6h857.3h857.3V-2722.4z M4828.5-1393.1c236-60.5,423.6-213.8,570.8-466c46.4-78.7,100.9-151.3,119-159.4c20.2-10.1,381.2-22.2,804.8-28.2l768.5-10.1l74.6-58.5c117-86.7,153.3-163.4,153.3-308.6V-2551h-693.9c-393.3,0-718.1-8.1-746.4-20.2c-64.5-24.2-117-125.1-100.8-189.6c6-26.2,32.3-68.6,56.5-90.8c44.4-42.3,56.5-42.3,1157.8-42.3c754.4-2,1141.7,6.1,1200.2,20.2c46.4,14.1,225.9,92.8,397.4,177.5c254.2,123,334.8,155.3,429.6,161.4c153.3,12.1,195.7-22.2,195.7-161.4c0-133.1-40.3-217.9-165.4-351c-229.9-244.1-1024.7-699.9-1639.9-942c-510.3-201.7-905.7-282.4-1361.6-280.4c-371.1,0-508.3,18.2-1109.4,135.2c-649.5,127.1-1188.1,185.6-1845.7,197.7l-242.1,4l-6.1,1121.5l-4,1121.5l121,14.1c149.3,18.2,278.4,50.4,639.4,165.4c157.3,50.4,342.9,102.9,413.5,119C4197.1-1352.8,4677.2-1352.8,4828.5-1393.1z"/></g></g>
</svg>